<svg width="96" height="18" viewBox="0 0 96 18" fill="none" xmlns="http://www.w3.org/2000/svg">
<path d="M7.1886 0.956578L7.14185 3.39469L7.09509 7.27933L7.10678 10.1141L7.15354 16.1218L7.99513 16.1335L12.9979 16.0635L13.9097 16.0518C14.3694 16.0518 14.5993 16.1879 14.5993 16.4601C14.5993 16.7012 14.4746 16.8334 14.2253 16.8568C14.1707 16.8645 13.9915 16.8723 13.6876 16.8801H0L0.0584439 9.7291L0.0818215 6.64938L0.0350664 1.95982L0.0467551 0.956578H7.1886Z" fill="#141414"/>
<path d="M23.1906 0.956578V1.77317L23.1321 8.16591L23.1789 16.8801H16.037L16.1188 7.34932L16.037 1.52819L16.0487 0.956578H23.1906Z" fill="#141414"/>
<path d="M44.7213 9.33247C45.9837 6.32275 47.0201 3.72521 47.8305 1.53986C47.963 1.18211 48.0682 0.960467 48.1461 0.874919C48.224 0.781594 48.3565 0.734932 48.5435 0.734932C48.6994 0.734932 48.8319 0.773817 48.9409 0.851588C49.0578 0.929358 49.1163 1.02268 49.1163 1.13156C49.1163 1.23266 48.8124 1.97148 48.2046 3.34802L47.5266 4.86455L41.7173 18L38.8301 12.5755L36.5625 8.53921L34.7741 11.8056L32.0507 16.9034L31.4896 18L29.2337 12.4472L27.2466 7.62929C26.2647 5.21063 25.3179 3.03694 24.4062 1.10823L24.3361 0.956578H31.6532L32.6585 3.52301C33.6871 6.08944 34.5014 8.01426 35.1014 9.29747L37.2639 5.33117L38.0587 3.83798L39.4964 1.15489C39.6367 0.882696 39.7691 0.637719 39.8938 0.419961L41.6238 3.79132C42.6212 5.69669 43.6537 7.54375 44.7213 9.33247Z" fill="#141414"/>
<path d="M57.3218 0.956578V1.77317L57.2634 8.16591L57.3101 16.8801H50.1683L50.2501 7.34932L50.1683 1.52819L50.18 0.956578H57.3218Z" fill="#141414"/>
<path d="M69.7704 14.2437C70.5184 14.757 71.325 15.1964 72.1899 15.5619C73.0627 15.9196 73.9978 16.1996 74.9953 16.4018C75.2368 16.4485 75.3576 16.5651 75.3576 16.7518C75.3576 17.0084 75.1784 17.1367 74.8199 17.1367C74.0017 17.1367 72.8523 16.779 71.3717 16.0635C70.1405 15.4647 68.7301 14.5392 67.1404 13.2871V13.7654L67.1521 15.7485V16.8801H60.0336V16.3552L60.057 12.5522L60.092 8.00259L60.0687 0.956578H64.7676C66.8715 0.956578 68.4612 1.01491 69.5366 1.13156C70.612 1.24822 71.5276 1.46598 72.2835 1.78483C73.5147 2.29812 74.4887 3.14193 75.2057 4.31627C75.868 5.40506 76.1992 6.54828 76.1992 7.74595C76.1992 9.02139 75.829 10.2229 75.0888 11.3506C73.8965 13.1627 72.1237 14.127 69.7704 14.2437ZM68.6599 13.5204L69.221 13.5321C70.8262 13.5321 72.1822 13.0849 73.2887 12.1905C73.99 11.6306 74.5277 10.9307 74.9017 10.0907C75.2524 9.3208 75.4277 8.53532 75.4277 7.73428C75.4277 6.3733 74.9836 5.15619 74.0952 4.08296C73.4173 3.25081 72.5679 2.66364 71.5471 2.32145C70.5262 1.97926 69.0885 1.7965 67.2339 1.77317L67.1287 9.58911V11.7006L67.1404 12.2489C67.6157 12.7077 68.1222 13.1316 68.6599 13.5204Z" fill="#141414"/>
<path d="M86.649 0L96 16.8801H87.8997L86.7892 14.7453H82.8618L79.4019 14.7336L78.8175 14.722L78.046 16.1452C77.82 16.5729 77.6603 16.8373 77.5668 16.9384C77.4811 17.0473 77.372 17.1017 77.2395 17.1017C76.9746 17.1017 76.8421 16.9851 76.8421 16.7518C76.8421 16.6507 76.9161 16.464 77.0642 16.1918C77.22 15.9119 77.7538 15.0019 78.6655 13.4621L85.7372 1.57485L86.649 0ZM83.0138 7.64096L80.9682 11.0823L79.3318 13.917L82.8384 13.9637L86.3568 13.9287L83.0138 7.64096Z" fill="#141414"/>
</svg>
