<svg width="46" height="33" viewBox="0 0 46 33" fill="none" xmlns="http://www.w3.org/2000/svg">
<rect x="0.5" y="0.875" width="45" height="31" rx="5.5" fill="white"/>
<rect x="0.5" y="0.875" width="45" height="31" rx="5.5" stroke="#EBE3DB"/>
<path d="M34.3749 13.3237L36.2118 19.4097H36.244L38.0809 13.3237H39.6669L36.9276 21.2007C36.3024 23.0047 35.5865 23.5991 34.0653 23.5991C33.9494 23.5991 33.5635 23.5864 33.4725 23.5601V22.3237C33.5693 22.3369 33.8071 22.3501 33.9296 22.3501C34.6193 22.3501 35.0065 22.053 35.245 21.2798L35.3866 20.8237L32.744 13.3237H34.3749ZM13.2577 12.4116C13.6061 12.4381 14.6113 12.5442 15.2557 13.522C15.202 13.5628 14.0632 14.2371 14.076 15.6499C14.0892 17.3413 15.5202 17.9033 15.5331 17.9165C15.5193 17.9592 15.306 18.7175 14.785 19.4956C14.3274 20.1828 13.8569 20.8563 13.1092 20.8696C12.3873 20.8828 12.1487 20.4273 11.3173 20.4272C10.4922 20.4272 10.2212 20.8569 9.53796 20.8833C8.81606 20.9097 8.26807 20.1565 7.81042 19.4692C6.87579 18.0815 6.16012 15.557 7.12683 13.8521C7.59738 12.9996 8.45506 12.4639 9.37683 12.4507C10.0859 12.4375 10.7369 12.9331 11.1688 12.9331C11.5943 12.9331 12.3617 12.3588 13.2577 12.4116ZM29.1923 13.2241C30.9777 13.2242 32.1376 14.1826 32.1376 15.6694V20.7974H30.6942V19.562H30.662C30.2494 20.3681 29.3399 20.8765 28.3602 20.8765C26.9102 20.8763 25.8986 19.9913 25.8983 18.6567C25.8983 17.3351 26.878 16.5747 28.6893 16.4624L30.6356 16.3433V15.7749C30.6356 14.9358 30.1011 14.4801 29.1473 14.48C28.3609 14.48 27.7868 14.8964 27.6708 15.5308H26.2655C26.3106 14.1959 27.5356 13.2241 29.1923 13.2241ZM22.205 10.4946C24.1514 10.4948 25.5116 11.8696 25.5116 13.8784C25.5116 15.8873 24.1255 17.2748 22.1532 17.2749H19.994V20.7974H18.4335V10.4946H22.205ZM28.9022 17.5327C27.9289 17.5922 27.4198 17.9691 27.4198 18.6167C27.4198 19.2444 27.9478 19.6537 28.7792 19.6538C29.8362 19.6538 30.6354 18.9671 30.6356 18.0024V17.4204L28.9022 17.5327ZM19.993 15.9341H21.785C23.1451 15.9341 23.9187 15.1869 23.9188 13.8853C23.9188 12.5834 23.1455 11.8433 21.7919 11.8433H19.993V15.9341ZM13.2635 9.7085C13.328 10.3693 13.0765 11.0171 12.6962 11.4995C12.3094 11.9686 11.6908 12.3385 11.0721 12.2856C10.9949 11.6513 11.2977 10.9773 11.6522 10.561C12.0389 10.0787 12.7157 9.73505 13.2635 9.7085Z" fill="black"/>
</svg>
