<svg width="46" height="33" viewBox="0 0 46 33" fill="none" xmlns="http://www.w3.org/2000/svg">
<rect x="0.5" y="0.875" width="45" height="31" rx="3.5" fill="white"/>
<rect x="0.5" y="0.875" width="45" height="31" rx="3.5" stroke="#EBE3DB"/>
<path d="M27.0521 7.49756C30.1534 8.32356 31.497 10.3877 31.8177 14.6284C31.9163 15.9296 31.9059 16.8018 31.9056 16.8228C31.9056 16.8228 31.9176 17.701 31.8177 19.0181C31.3811 24.7907 29.0534 26.5349 22.9681 26.605C22.8736 26.6056 22.3452 26.6056 22.2513 26.605C21.1958 26.5926 20.2564 26.5286 19.4173 26.4038C19.4468 26.4035 19.4755 26.4029 19.5052 26.4009C20.6062 26.3377 22.1397 25.4887 23.0521 23.5132C23.4505 22.6493 23.557 21.1069 23.557 21.1069V17.8276H23.5579V17.8267H27.0521V14.5825H23.5579V14.5815C23.5576 14.5806 23.556 14.5777 23.555 14.5728C23.5547 14.5717 23.5543 14.569 23.554 14.5679C23.5522 14.5621 23.5511 14.5558 23.5482 14.5464C23.5479 14.5437 23.5465 14.539 23.5462 14.5356C23.5438 14.5265 23.5421 14.5175 23.5404 14.5054C23.5389 14.5002 23.5376 14.4928 23.5365 14.4868C23.5341 14.4747 23.5325 14.4622 23.5306 14.4478C23.5289 14.4409 23.5282 14.4321 23.5277 14.4243C23.5253 14.409 23.5237 14.394 23.5218 14.3765C23.5212 14.3677 23.5217 14.3571 23.5208 14.3481C23.5197 14.3295 23.5182 14.3114 23.5179 14.2905V14.1909C23.5179 14.181 23.5186 14.1694 23.5189 14.1587C23.5195 14.1327 23.521 14.1064 23.5238 14.0776C23.5244 14.0691 23.5251 14.0594 23.5257 14.0503C23.5285 14.019 23.5326 13.9873 23.5374 13.9536C23.538 13.9473 23.5398 13.9402 23.5404 13.9341C23.5462 13.8959 23.5525 13.8567 23.5609 13.8159C23.5609 13.8151 23.5616 13.8141 23.5618 13.813C23.6209 13.5295 23.7468 13.18 24.0003 12.7847C24.6822 11.7236 26.6191 11.7738 26.9906 11.7935C27.0295 11.7958 27.0515 11.7974 27.0521 11.7974V7.49756ZM19.4818 20.104C19.4865 20.2849 19.4404 20.9011 18.9105 21.563C18.3931 22.2099 17.7038 22.3347 17.3919 22.3569L17.2259 22.3608V25.8413C14.7874 24.8567 13.6883 22.8034 13.4017 19.0181C13.367 18.562 13.3463 18.1607 13.3333 17.8286L19.5052 17.8267C19.5046 17.9027 19.4797 20.0495 19.4818 20.104ZM22.9681 7.04248C23.7368 7.05129 24.4453 7.08699 25.098 7.15381C25.0501 7.15542 25.0032 7.15687 24.9505 7.1626C24.4161 7.2156 22.4061 7.12449 20.5824 9.32764C19.6084 10.5054 19.5063 14.5361 19.5052 14.5825H13.4056C13.8516 8.84686 16.182 7.11223 22.2513 7.04248C22.3446 7.0419 22.4356 7.0415 22.5277 7.0415H22.6917C22.7841 7.0415 22.8746 7.04189 22.9681 7.04248Z" fill="#659AD2"/>
</svg>
