<svg width="46" height="33" viewBox="0 0 46 33" fill="none" xmlns="http://www.w3.org/2000/svg">
<rect x="0.5" y="0.875" width="45" height="31" rx="3.5" fill="white"/>
<rect x="0.5" y="0.875" width="45" height="31" rx="3.5" stroke="#EBE3DB"/>
<path d="M35.6149 19.2149H35.6383L37.5289 14.4698H38.8571L34.7731 23.9825H33.5123L35.0309 20.6553L32.3512 14.4698H33.6793L35.6149 19.2149ZM29.2223 14.255C30.1256 14.255 30.8391 14.5014 31.3629 14.9864C31.8868 15.4717 32.1452 16.15 32.1452 17.005V21.0792H30.9762V20.1632H30.9225C30.414 20.9172 29.7461 21.2948 28.9039 21.295C28.1906 21.2949 27.5823 21.0796 27.1041 20.6485C26.6336 20.2481 26.3674 19.6541 26.3825 19.0303C26.3825 18.3451 26.6417 17.8057 27.15 17.3975C27.6586 16.9895 28.3421 16.7892 29.192 16.7891C29.9208 16.7891 30.5134 16.9277 30.984 17.1895V16.9044C30.984 16.4809 30.8018 16.08 30.483 15.8028C30.1567 15.5102 29.7389 15.3488 29.3063 15.3487C28.6233 15.3488 28.0838 15.6416 27.6891 16.2266L26.611 15.5411C27.1879 14.6864 28.0611 14.2551 29.2223 14.255ZM23.4303 11.42C24.2122 11.4047 24.9709 11.7054 25.525 12.2598C26.6335 13.3074 26.7019 15.0709 25.6618 16.2032C25.6162 16.2494 25.5706 16.2957 25.525 16.3419C24.9557 16.8886 24.2576 17.166 23.4303 17.1661H21.4108V21.0792H20.1881V11.42H23.4303ZM29.3825 17.7901C28.8893 17.7902 28.4713 17.9139 28.1373 18.1524C27.8112 18.3911 27.6432 18.692 27.6432 19.0538C27.6434 19.377 27.7953 19.6776 28.0455 19.8624C28.3187 20.0779 28.6533 20.1932 28.9948 20.1856C29.5109 20.1856 30.0053 19.9779 30.3698 19.6085C30.7719 19.2236 30.977 18.7686 30.9772 18.2452C30.5976 17.9372 30.0657 17.7825 29.3825 17.7901ZM21.4108 15.9796H23.4606C23.9162 15.995 24.3573 15.8108 24.6686 15.4796C25.3063 14.8096 25.2908 13.7311 24.6305 13.0841C24.3192 12.776 23.901 12.6065 23.4606 12.6065H21.4108V15.9796Z" fill="#3C4043"/>
<path d="M17.1905 16.3189C17.1905 15.9415 17.1602 15.5641 17.0994 15.1943H11.9444V17.3279H14.8977C14.7762 18.0134 14.3815 18.6296 13.8045 19.0148V20.4012H15.5658C16.5984 19.4384 17.1905 18.0135 17.1905 16.3189Z" fill="#4285F4"/>
<path d="M11.9446 21.7412C13.4175 21.7412 14.6626 21.2482 15.5661 20.4009L13.8047 19.0145C13.3112 19.3534 12.6811 19.5459 11.9446 19.5459C10.5173 19.5459 9.31016 18.5677 8.87741 17.2583H7.0629V18.691C7.98913 20.5627 9.87957 21.7412 11.9446 21.7412Z" fill="#34A853"/>
<path d="M8.8776 17.2584C8.6498 16.5728 8.6498 15.8257 8.8776 15.1325V13.7075H7.0628C6.28068 15.2711 6.28068 17.1197 7.0628 18.6833L8.8776 17.2584Z" fill="#FBBC04"/>
<path d="M11.9446 12.845C12.7266 12.8296 13.4782 13.13 14.0401 13.6768L15.604 12.0901C14.6095 11.1504 13.3036 10.6343 11.9446 10.6497C9.87957 10.6497 7.98913 11.8359 7.0629 13.7076L8.87741 15.1403C9.31016 13.8232 10.5173 12.845 11.9446 12.845Z" fill="#EA4335"/>
</svg>
