<svg width="46" height="33" viewBox="0 0 46 33" fill="none" xmlns="http://www.w3.org/2000/svg">
<rect x="0.5" y="0.875" width="45" height="31" rx="5.5" fill="white"/>
<rect x="0.5" y="0.875" width="45" height="31" rx="5.5" stroke="#EBE3DB"/>
<path d="M28.7695 7.08154C33.7627 7.08154 37.8105 11.0814 37.8105 16.0151C37.8104 20.9488 33.7626 24.9478 28.7695 24.9478C26.5311 24.9477 24.4842 24.1425 22.9053 22.811C21.3264 24.1425 19.2795 24.9477 17.041 24.9478C12.0479 24.9478 8.00014 20.9488 8 16.0151C8 11.0814 12.0479 7.08154 17.041 7.08154C19.2794 7.08157 21.3264 7.8869 22.9053 9.21826C24.4841 7.8869 26.5312 7.08158 28.7695 7.08154Z" fill="#ED0006"/>
<path d="M28.7696 7.08154C33.7627 7.08154 37.8106 11.0814 37.8106 16.0151C37.8104 20.9488 33.7626 24.9478 28.7696 24.9478C26.5311 24.9477 24.4842 24.1425 22.9053 22.811C24.8483 21.1726 26.082 18.7369 26.0821 16.0151C26.0821 13.2931 24.8485 10.8568 22.9053 9.21826C24.4842 7.8869 26.5312 7.08157 28.7696 7.08154Z" fill="#F9A000"/>
<path d="M22.9046 9.21875C24.8478 10.8572 26.0812 13.2927 26.0814 16.0146C26.0814 18.7366 24.8477 21.172 22.9046 22.8105C20.962 21.172 19.7288 18.7362 19.7288 16.0146C19.7289 13.2931 20.9619 10.8572 22.9046 9.21875Z" fill="#FF5E00"/>
</svg>
