<svg width="46" height="33" viewBox="0 0 46 33" fill="none" xmlns="http://www.w3.org/2000/svg">
<rect x="0.5" y="0.875" width="45" height="31" rx="3.5" fill="white"/>
<rect x="0.5" y="0.875" width="45" height="31" rx="3.5" stroke="#EBE3DB"/>
<path fill-rule="evenodd" clip-rule="evenodd" d="M19.4856 24.9729L19.7799 23.0407L19.1243 23.0249H15.9937L18.1694 8.76676C18.1761 8.72358 18.198 8.6835 18.23 8.65499C18.2622 8.62648 18.3032 8.61084 18.3461 8.61084H23.6247C25.3773 8.61084 26.5866 8.98769 27.2179 9.73161C27.514 10.0806 27.7025 10.4454 27.7938 10.8467C27.8894 11.2678 27.891 11.771 27.7977 12.3847L27.7909 12.4293V12.8226L28.087 12.996C28.3362 13.1327 28.5343 13.2891 28.6863 13.4682C28.9394 13.7666 29.1032 14.1459 29.1724 14.5954C29.244 15.0578 29.2203 15.6082 29.1032 16.2312C28.9681 16.9478 28.7498 17.5719 28.4549 18.0826C28.1837 18.5531 27.8382 18.9435 27.4279 19.2459C27.0362 19.5333 26.5709 19.7514 26.0447 19.891C25.5347 20.0282 24.9534 20.0975 24.3158 20.0975H23.905C23.6113 20.0975 23.326 20.2068 23.102 20.4028C22.8774 20.6029 22.7289 20.8763 22.6833 21.1752L22.6523 21.3492L22.1322 24.7549L22.1087 24.8798C22.1024 24.9194 22.0917 24.9391 22.076 24.9525C22.0619 24.9647 22.0418 24.9729 22.0221 24.9729H19.4856Z" fill="#28356A"/>
<path fill-rule="evenodd" clip-rule="evenodd" d="M28.3675 12.4746C28.3519 12.5787 28.3338 12.6851 28.3136 12.7944C27.6175 16.4886 25.2358 17.7648 22.1942 17.7648H20.6454C20.2734 17.7648 19.9599 18.0439 19.902 18.4232L18.8845 25.0942C18.8468 25.3433 19.0325 25.5677 19.2756 25.5677H22.0225C22.3477 25.5677 22.624 25.3235 22.6753 24.9919L22.7022 24.8477L23.2194 21.4554L23.2527 21.2694C23.3033 20.9367 23.5802 20.6923 23.9054 20.6923H24.3162C26.9775 20.6923 29.061 19.5756 29.6699 16.3438C29.9241 14.9938 29.7925 13.8665 29.1194 13.0737C28.9158 12.8347 28.6631 12.6362 28.3675 12.4746Z" fill="#298FC2"/>
<path fill-rule="evenodd" clip-rule="evenodd" d="M27.639 12.1747C27.5326 12.1426 27.4229 12.1136 27.3103 12.0874C27.1971 12.0618 27.0813 12.0392 26.962 12.0193C26.5444 11.9496 26.0868 11.9165 25.5967 11.9165H21.4593C21.3573 11.9165 21.2605 11.9403 21.174 11.9833C20.9831 12.0781 20.8414 12.2648 20.807 12.4934L19.9268 18.2555L19.9016 18.4234C19.9594 18.0442 20.273 17.7651 20.645 17.7651H22.1937C25.2354 17.7651 27.6171 16.4882 28.3132 12.7947C28.334 12.6854 28.3515 12.579 28.3671 12.4749C28.191 12.3782 28.0003 12.2956 27.7949 12.2252C27.7441 12.2078 27.6918 12.191 27.639 12.1747Z" fill="#22284F"/>
<path fill-rule="evenodd" clip-rule="evenodd" d="M20.8073 12.4933C20.8416 12.2647 20.9834 12.078 21.1742 11.9839C21.2614 11.9407 21.3576 11.9169 21.4596 11.9169H25.5969C26.087 11.9169 26.5446 11.9501 26.9622 12.0199C27.0815 12.0396 27.1974 12.0624 27.3106 12.088C27.4231 12.114 27.5328 12.1432 27.6392 12.1751C27.692 12.1914 27.7444 12.2084 27.7956 12.2252C28.001 12.2955 28.1919 12.3788 28.368 12.4748C28.5751 11.1096 28.3662 10.1801 27.6522 9.33842C26.8648 8.4117 25.4439 8.01514 23.6256 8.01514H18.3468C17.9754 8.01514 17.6586 8.29423 17.6012 8.67417L15.4025 23.079C15.3592 23.3639 15.5718 23.621 15.8499 23.621H19.1088L20.8073 12.4933Z" fill="#28356A"/>
</svg>
