<svg width="46" height="33" viewBox="0 0 46 33" fill="none" xmlns="http://www.w3.org/2000/svg">
<rect x="0.5" y="0.875" width="45" height="31" rx="5.5" fill="white"/>
<rect x="0.5" y="0.875" width="45" height="31" rx="5.5" stroke="#EBE3DB"/>
<path fill-rule="evenodd" clip-rule="evenodd" d="M14.3337 21.5191H11.5873L9.52793 13.4313C9.43019 13.0593 9.22264 12.7304 8.91734 12.5753C8.15544 12.1858 7.31588 11.8757 6.39999 11.7194V11.408H10.8241C11.4347 11.408 11.8926 11.8757 11.969 12.419L13.0375 18.253L15.7825 11.408H18.4525L14.3337 21.5191ZM19.979 21.5191H17.3853L19.521 11.408H22.1147L19.979 21.5191ZM25.4703 14.2091C25.5466 13.6645 26.0045 13.3531 26.5388 13.3531C27.3784 13.2749 28.2929 13.4313 29.0561 13.8195L29.5141 11.6426C28.7509 11.3312 27.9113 11.1748 27.1494 11.1748C24.632 11.1748 22.8003 12.5753 22.8003 14.5191C22.8003 15.9978 24.0978 16.7743 25.0137 17.242C26.0045 17.7084 26.3861 18.0198 26.3098 18.4862C26.3098 19.1858 25.5466 19.4972 24.7847 19.4972C23.8688 19.4972 22.9529 19.264 22.1147 18.8744L21.6567 21.0527C22.5726 21.441 23.5635 21.5973 24.4794 21.5973C27.302 21.6742 29.0561 20.275 29.0561 18.1748C29.0561 15.5301 25.4703 15.3751 25.4703 14.2091ZM38.1333 21.5191L36.0739 11.408H33.8619C33.4039 11.408 32.946 11.7194 32.7933 12.1858L28.9798 21.5191H31.6498L32.1827 20.0418H35.4633L35.7686 21.5191H38.1333ZM34.2435 14.1309L35.0054 17.9416H32.8697L34.2435 14.1309Z" fill="#172B85"/>
</svg>
